<mxfile host="app.diagrams.net" modified="2021-10-01T09:29:33.648Z" agent="5.0 (X11; Linux x86_64) AppleWebKit/537.36 (KHTML, like Gecko) Chrome/93.0.4577.82 Safari/537.36" etag="9z1AhKuQ6RC8wGerjJtV" version="15.4.0" type="github">
  <diagram id="NNhQ8OENP-A5YcnTH3s-" name="Page-1">
    <mxGraphModel dx="1358" dy="676" grid="1" gridSize="10" guides="1" tooltips="1" connect="1" arrows="1" fold="1" page="1" pageScale="1" pageWidth="850" pageHeight="1100" math="0" shadow="0">
      <root>
        <mxCell id="0" />
        <mxCell id="1" parent="0" />
        <mxCell id="EOTt8eSDkuGlhw9FAXS8-16" value="OPC UA server" style="swimlane;fontStyle=0;childLayout=stackLayout;horizontal=1;startSize=30;horizontalStack=0;resizeParent=1;resizeParentMax=0;resizeLast=0;collapsible=1;marginBottom=0;" vertex="1" parent="1">
          <mxGeometry x="120" y="230" width="140" height="60" as="geometry" />
        </mxCell>
        <mxCell id="EOTt8eSDkuGlhw9FAXS8-19" value="Cube" style="text;strokeColor=none;fillColor=none;align=left;verticalAlign=middle;spacingLeft=4;spacingRight=4;overflow=hidden;points=[[0,0.5],[1,0.5]];portConstraint=eastwest;rotatable=0;" vertex="1" parent="EOTt8eSDkuGlhw9FAXS8-16">
          <mxGeometry y="30" width="140" height="30" as="geometry" />
        </mxCell>
        <mxCell id="EOTt8eSDkuGlhw9FAXS8-20" value="Web" style="swimlane;fontStyle=0;childLayout=stackLayout;horizontal=1;startSize=30;horizontalStack=0;resizeParent=1;resizeParentMax=0;resizeLast=0;collapsible=1;marginBottom=0;" vertex="1" parent="1">
          <mxGeometry x="285" y="230" width="140" height="60" as="geometry" />
        </mxCell>
        <mxCell id="EOTt8eSDkuGlhw9FAXS8-21" value="socket.io" style="text;strokeColor=none;fillColor=none;align=left;verticalAlign=middle;spacingLeft=4;spacingRight=4;overflow=hidden;points=[[0,0.5],[1,0.5]];portConstraint=eastwest;rotatable=0;" vertex="1" parent="EOTt8eSDkuGlhw9FAXS8-20">
          <mxGeometry y="30" width="140" height="30" as="geometry" />
        </mxCell>
        <mxCell id="EOTt8eSDkuGlhw9FAXS8-24" value="OPC UA Client" style="swimlane;fontStyle=0;childLayout=stackLayout;horizontal=1;startSize=30;horizontalStack=0;resizeParent=1;resizeParentMax=0;resizeLast=0;collapsible=1;marginBottom=0;" vertex="1" parent="1">
          <mxGeometry x="500" y="230" width="140" height="60" as="geometry" />
        </mxCell>
        <mxCell id="EOTt8eSDkuGlhw9FAXS8-27" value="socket.io" style="text;strokeColor=none;fillColor=none;align=left;verticalAlign=middle;spacingLeft=4;spacingRight=4;overflow=hidden;points=[[0,0.5],[1,0.5]];portConstraint=eastwest;rotatable=0;" vertex="1" parent="EOTt8eSDkuGlhw9FAXS8-24">
          <mxGeometry y="30" width="140" height="30" as="geometry" />
        </mxCell>
        <mxCell id="EOTt8eSDkuGlhw9FAXS8-28" value="" style="endArrow=classic;startArrow=classic;html=1;rounded=0;edgeStyle=orthogonalEdgeStyle;entryX=0.421;entryY=0.967;entryDx=0;entryDy=0;entryPerimeter=0;exitX=0.364;exitY=1.1;exitDx=0;exitDy=0;exitPerimeter=0;" edge="1" parent="1" source="EOTt8eSDkuGlhw9FAXS8-19" target="EOTt8eSDkuGlhw9FAXS8-27">
          <mxGeometry width="50" height="50" relative="1" as="geometry">
            <mxPoint x="170" y="370" as="sourcePoint" />
            <mxPoint x="560" y="330" as="targetPoint" />
            <Array as="points">
              <mxPoint x="170" y="320" />
              <mxPoint x="559" y="320" />
            </Array>
          </mxGeometry>
        </mxCell>
        <mxCell id="EOTt8eSDkuGlhw9FAXS8-33" value="" style="endArrow=block;startArrow=block;endFill=1;startFill=1;html=1;rounded=0;edgeStyle=orthogonalEdgeStyle;entryX=-0.014;entryY=0.2;entryDx=0;entryDy=0;entryPerimeter=0;exitX=1.007;exitY=0.2;exitDx=0;exitDy=0;exitPerimeter=0;" edge="1" parent="1" source="EOTt8eSDkuGlhw9FAXS8-21" target="EOTt8eSDkuGlhw9FAXS8-27">
          <mxGeometry width="160" relative="1" as="geometry">
            <mxPoint x="340" y="310" as="sourcePoint" />
            <mxPoint x="500" y="310" as="targetPoint" />
          </mxGeometry>
        </mxCell>
      </root>
    </mxGraphModel>
  </diagram>
</mxfile>
